<?xml version="1.0" encoding="UTF-8"?>
<svg width="565px" height="396px" viewBox="0 0 565 396" version="1.1" xmlns="http://www.w3.org/2000/svg" xmlns:xlink="http://www.w3.org/1999/xlink">
    <!-- Generator: Sketch 50.2 (55047) - http://www.bohemiancoding.com/sketch -->
    <title>Group 3</title>
    <desc>Created with Sketch.</desc>
    <defs>
        <rect id="path-1" x="0" y="0" width="80" height="49" rx="4"></rect>
    </defs>
    <g id="Page-1" stroke="none" stroke-width="1" fill="none" fill-rule="evenodd">
        <g id="Artboard" transform="translate(-233.000000, -158.000000)">
            <g id="Group-3" transform="translate(235.000000, 61.000000)">
                <g id="email" transform="translate(0.000000, 242.000000)" stroke="#FFAA91" stroke-dasharray="10" stroke-linecap="round" stroke-width="4">
                    <path d="M0.457166685,201.578779 C85.5251667,253.271779 158.8152,211.9455 225.4822,164.9755 C292.1492,118.0065 326.4822,44.9805 431.4822,20.775 C536.4822,-3.4305 640.4822,107.1635 470.4822,144.9165 C300.4822,182.6705 228.6552,95.0275 228.6552,62.7885 C228.6552,30.5499 273.4822,0 273.4822,0" id="Shape" style="mix-blend-mode: multiply;"></path>
                </g>
                <g id="mail" transform="translate(19.000000, 0.000000)">
                    <path d="M123.145,182.31 C129.334,184.937 135.175,185.806 137.712,184.76 C144.074,182.136 141.298,157.976 134.857,149.203 C128.416,140.43 101.579,139.983 102.898,158.974 C103.356,165.565 106.924,171.003 111.653,175.185 L109.126,210.046 L130.279,207.073 L123.145,182.31 Z" id="Shape" stroke="#6A7F95" fill="#FFFFFF"></path>
                    <path d="M125.049,140.04 C122.035,139.568 117.798,139.86 116.061,140.309 C116.728,137.77 116.751,135.042 116.06,132.486 C115.389,130.002 113.954,128.009 112.589,125.901 C111.96,124.929 111.267,123.972 110.339,123.291 C109.394,122.598 108.267,122.211 107.127,122.111 C105.961,122.009 104.783,122.196 103.686,122.592 C103.2,122.767 102.783,123.059 102.31,123.254 C101.826,123.455 101.538,123.175 101.129,122.912 C100.143,122.276 98.8021,122.082 97.6712,122.104 C96.4024,122.129 95.1341,122.499 94.0017,123.075 C92.8995,123.636 91.8777,124.438 91.1727,125.498 C90.8587,125.969 90.5874,126.494 90.4415,127.052 C90.3816,127.281 90.3847,127.411 90.1795,127.52 C89.9897,127.622 89.7559,127.657 89.5592,127.756 C87.657,128.711 86.1658,130.489 85.5137,132.595 C85.1333,133.823 85.1615,135.888 85.5514,138.152 C85.9414,140.416 88.8347,146.06 91.0651,147.954 C93.0559,149.644 95.7622,150.563 98.2796,150.779 C96.92,152.851 96.1664,155.308 95.699,157.764 C95.1914,160.433 95.0276,163.154 95.2087,165.878 C95.3808,168.466 95.7441,171.178 96.6988,173.6 C97.5918,175.866 99.0672,177.62 101.25,178.557 C102.251,178.986 103.301,179.267 104.352,179.511 C105.388,179.751 106.425,179.98 107.485,180.047 C109.489,180.175 111.725,179.791 113.008,178.034 C113.471,177.4 113.967,176.616 114.266,175.88 C114.374,175.615 114.437,175.443 114.231,175.228 C113.984,174.97 113.619,174.797 113.322,174.61 C111.63,173.544 110.453,171.969 109.932,169.974 C109.403,167.949 109.584,165.215 111.465,164.034 C113.787,162.577 116.694,163.467 119.063,164.344 C119.536,160.919 121.041,157.684 123.841,155.75 C126.94,153.61 130.737,152.877 133.961,150.962 C134.801,150.463 135.65,149.911 136.2,149.057 C136.43,148.7 136.694,148.242 136.745,147.806 C136.811,147.233 136.388,146.82 136.052,146.428 C134.266,144.349 128.063,140.513 125.049,140.04 Z" id="Shape" fill="#6A7F95"></path>
                    <polygon id="Shape" stroke="#6A7F95" fill="#FFFFFF" points="116.7 279.93 182.833 390.159 232.413 483.349 243.092 483.349 160.02 279.93"></polygon>
                    <path d="M228.566,478.149 C227.493,477.686 226.221,478.161 225.826,479.261 C225.189,481.036 224.39,483.551 224.39,484.995 C224.39,487.395 225.192,492 225.192,492 C227.985,492 275.39,492 275.39,492 C275.39,492 277.346,485.551 273.131,485.036 C268.915,484.522 266.127,484.108 266.127,484.108 L242.897,473.783 C242.383,473.555 241.782,473.795 241.567,474.315 L240.11,477.837 C240.11,477.837 236.208,479.653 233.768,479.653 C232.348,479.653 230.153,478.834 228.566,478.149 Z" id="Shape" stroke="#6A7F95" fill="#FFFFFF"></path>
                    <path d="M218.643,468.426 L239.238,462.215 C239.238,462.215 225.703,421.876 206.061,373.431 C186.418,324.986 163.87,279.93 163.87,279.93 L105.703,279.93 C105.703,279.93 130.772,336.924 158.856,383.503 C186.939,430.081 218.643,468.426 218.643,468.426 Z" id="Shape" fill="#A95520"></path>
                    <path d="M112.354,279.93 C106.112,318.665 94.0736,368.154 92.9375,369.681 C92.1801,370.699 64.9133,379.809 11.137,397.009 L13.4438,406.398 C77.5719,397.173 111.362,390.016 114.814,384.927 C119.992,377.293 145.846,316.987 155.86,279.93 L112.354,279.93 Z" id="Shape" stroke="#6A7F95" fill="#FFFFFF"></path>
                    <path d="M30.0403,388.893 L34.1035,404.015 C82.0676,408.209 111.456,405.178 122.269,394.923 C133.083,384.668 145.406,346.337 159.241,279.93 L103.776,279.93 C95.0103,334.308 90.11,362.639 89.0745,364.922 C88.0391,367.204 68.361,375.195 30.0403,388.893 Z" id="Shape" fill="#C06124"></path>
                    <path d="M15.1201,395.589 C15.3921,394.449 14.7002,393.275 13.5438,393.078 C11.68,392.761 9.06033,392.414 7.6355,392.664 C5.26469,393.081 0.855574,394.668 0.855574,394.668 C1.34053,397.41 9.5723,443.955 9.5723,443.955 C9.5723,443.955 16.2825,444.756 16.0584,440.527 C15.8343,436.299 15.7595,433.489 15.7595,433.489 L21.9227,408.895 C22.0598,408.347 21.7172,407.795 21.1659,407.674 L17.4358,406.856 C17.4358,406.856 14.9649,403.34 14.5412,400.944 C14.2953,399.554 14.7202,397.265 15.1201,395.589 Z" id="Shape" stroke="#6A7F95" fill="#FFFFFF"></path>
                    <path d="M48.3831,325.467 C50.9932,320.19 62.811,266.318 62.811,266.318 L78.7387,266.384 C78.7387,266.384 61.2456,324.285 59.8714,327.678 C58.0861,332.086 61.1128,338.487 63.1651,342.828 C63.4827,343.5 63.7768,344.122 64.0263,344.68 C61.1755,345.953 59.807,344.416 58.3643,342.796 C56.7347,340.966 55.0104,339.03 50.9486,340.916 C49.3793,341.644 47.8943,342.505 46.4434,343.347 C41.4318,346.253 36.8279,348.922 30.568,345.073 C29.5756,344.462 28.4888,342.163 31.1178,340.365 C37.6677,335.886 47.107,328.046 48.3831,325.467 Z M214.415,277.866 L184.65,259.117 L179.466,274.986 L208.318,284.614 C216.897,293.347 221.602,296.908 222.433,295.298 C223.133,293.94 222.43,292.765 221.781,291.682 C221.277,290.839 220.805,290.051 221.058,289.278 C221.635,287.512 226.975,287.319 232.051,287.352 C237.126,287.385 235.499,285.249 234.204,284.228 C228.836,281.514 222.24,279.393 214.415,277.866 Z" id="Shape" stroke="#6A7F95" fill="#FFFFFF"></path>
                    <path d="M119.138,193.704 L128.362,189.155 C146.076,219.99 170.088,248.858 206.536,270.97 L200.406,286.013 C169.3,273.176 140.257,263.889 125.661,240.119 C120.762,232.14 120.264,203.908 119.138,193.704 Z" id="Shape" stroke="#6A7F95" fill="#FFFFFF"></path>
                    <path d="M98.8416,290.343 C98.8416,290.343 141.021,288.896 164.269,281.148 C166.189,280.508 166.038,277.174 164.81,275.07 C145.687,242.295 131.661,213.323 128.266,189.169 C124.625,191.689 114.635,191.686 114.635,191.686 C100.582,219.045 96.5288,248.739 98.8416,290.343 Z" id="Shape" stroke="#6A7F95" fill="#FFFFFF"></path>
                    <path d="M109.312,190.307 C109.722,189.939 109.94,189.754 109.94,189.754 L109.979,190.213 L117.293,189.185 C117.963,191.289 119.624,199.201 122.046,210.738 C130.847,252.661 149.696,342.449 167.575,375.311 L77.8504,387.921 C74.2008,348.216 82.157,299.003 91.6371,256.832 C82.0426,269.457 71.6277,289.825 65.4421,322.163 L48.0311,320.224 C54.8173,244.236 99.6641,199.236 108.449,191.095 C108.513,190.862 108.577,190.631 108.641,190.401 L109.312,190.307 Z" id="Shape" stroke="#6A7F95" fill="#FFFFFF"></path>
                    <path d="M384.416,182.073 C379.117,186.213 373.701,188.564 370.979,188.21 C364.155,187.322 360.584,163.267 364.534,153.126 C368.485,142.985 394.292,135.607 397.933,154.292 C399.196,160.777 397.158,166.953 393.672,172.216 L405.135,205.236 L383.935,207.839 L384.416,182.073 Z" id="Shape" stroke="#6A7F95" fill="#FFFFFF"></path>
                    <path d="M375.272,140.678 C378.01,139.879 385.495,138.641 386.883,138.471 C387.769,138.362 388.755,138.446 389.181,137.569 C389.529,136.852 389.233,135.747 389.267,134.96 C389.306,134.046 389.409,133.135 389.515,132.227 C389.816,129.641 390.444,127.14 391.458,124.739 C393.36,120.235 396.499,116.505 400.737,114.038 C405.418,111.314 410.948,110.143 416.315,109.92 C422.058,109.681 427.435,110.92 433.02,112.022 C438.343,113.072 443.783,113.075 449.033,111.598 C454.324,110.111 458.04,106.697 462.248,103.374 C466.556,99.9711 471.649,97.4664 477.205,97.2162 C482.391,96.9829 487.386,98.5164 491.981,100.82 C496.28,102.975 499.95,105.753 502.351,110.001 C504.934,114.572 505.581,119.857 502.828,124.514 C498.838,131.265 490.22,133.942 482.867,134.684 C478.614,135.113 474.354,134.853 470.177,133.94 C464.607,132.723 459.602,130.116 454.29,128.154 C451.797,127.233 449.251,126.538 446.623,126.135 C444.073,125.744 441.606,125.724 439.556,127.482 C437.388,129.343 435.461,131.146 432.881,132.46 C430.405,133.722 427.726,134.586 424.962,134.904 C419.586,135.522 414.086,134.504 408.732,134.027 C404.365,133.638 399.702,133.289 395.472,134.697 C393.707,135.285 391.157,136.364 390.733,138.32 C401.979,138.957 407.966,151.992 406.087,162.331 C405.073,167.911 395.782,175.43 391.522,173.084 C388.824,171.599 390.04,169.064 390.824,167.393 C392.324,164.193 392.493,160.298 388.788,158.653 C385.593,157.235 382.983,161.856 382.923,161.858 C382.097,161.894 374.538,158.776 368.954,153.558 C364.184,154.432 363.067,151.363 363.897,148.639 C364.727,145.914 371.489,141.784 375.272,140.678 Z" id="Shape" fill="#6A7F95"></path>
                    <path d="M430.187,279.93 C428.582,301.766 325.2,366.056 324.597,367.86 C324.195,369.063 356.776,443.888 356.776,443.888 L347.739,447.389 C347.739,447.389 297.765,368.144 300.332,359.7 C304.007,347.611 380.544,280.162 380.544,280.162 L430.187,279.93 Z" id="Shape" stroke="#6A7F95" fill="#FFFFFF"></path>
                    <path d="M354.398,432.622 L339.643,437.977 C308.531,402.979 296.336,374.102 298.559,359.389 C300.783,344.676 378.495,279.983 378.495,279.983 L431.245,279.983 C429.445,330.554 333.623,368.053 332.341,370.208 C331.06,372.363 343.673,393.469 354.398,432.622 Z" id="Shape" fill="#007A87"></path>
                    <path d="M357.271,442.24 C358.121,441.438 359.48,441.451 360.228,442.35 C361.436,443.801 363.05,445.891 363.545,447.248 C364.368,449.503 365.194,454.104 365.194,454.104 C362.57,455.056 318.024,471.221 318.024,471.221 C318.024,471.221 313.973,465.828 317.758,463.907 C321.543,461.986 324.021,460.646 324.021,460.646 L342.307,443.023 C342.712,442.633 343.36,442.654 343.74,443.069 L346.317,445.882 C346.317,445.882 350.607,446.257 352.9,445.425 C354.234,444.941 356.014,443.424 357.271,442.24 Z" id="Shape" stroke="#6A7F95" fill="#FFFFFF"></path>
                    <polygon id="Shape" stroke="#6A7F95" fill="#FFFFFF" points="418.3 279.93 464.354 390.159 509.618 483.349 498.939 483.349 382.1 279.93"></polygon>
                    <path d="M507.574,478.149 C508.647,477.686 509.919,478.161 510.314,479.261 C510.951,481.036 511.75,483.551 511.75,484.995 C511.75,487.395 510.948,492 510.948,492 C508.155,492 460.75,492 460.75,492 C460.75,492 458.794,485.551 463.009,485.036 C467.225,484.522 470.013,484.108 470.013,484.108 L493.243,473.783 C493.757,473.555 494.358,473.795 494.573,474.315 L496.03,477.837 C496.03,477.837 499.932,479.653 502.372,479.653 C503.792,479.653 505.987,478.834 507.574,478.149 Z" id="Shape" stroke="#6A7F95" fill="#FFFFFF"></path>
                    <path d="M505.53,463.99 L481.801,468.426 C463.453,441.533 386.669,331.263 378.25,279.93 L431.077,279.93 C459.191,317.038 488.041,436.652 505.53,463.99 Z" id="Shape" fill="#89C5CC"></path>
                    <path d="M493.682,301.002 C489.795,296.581 464.437,247.603 464.437,247.603 L449.069,251.79 C449.069,251.79 480.952,303.19 483.157,306.112 C486.023,309.907 484.756,316.874 483.897,321.598 C483.764,322.329 483.641,323.006 483.544,323.609 C486.628,324.101 487.552,322.263 488.526,320.324 C489.627,318.135 490.791,315.819 495.202,316.589 C496.907,316.887 498.564,317.334 500.183,317.771 C505.776,319.281 510.914,320.668 515.964,315.329 C516.765,314.483 517.22,311.981 514.215,310.925 C506.729,308.293 495.582,303.164 493.682,301.002 Z M320.987,297.995 L344.886,272.182 L354.001,286.169 L328.624,302.936 C322.597,313.591 318.974,318.249 317.755,316.909 C316.727,315.779 317.102,314.461 317.448,313.248 C317.717,312.302 317.969,311.42 317.525,310.738 C316.51,309.182 311.302,310.378 306.408,311.723 C301.514,313.069 302.533,310.584 303.519,309.263 C308.002,305.252 313.824,301.496 320.987,297.995 Z" id="Shape" stroke="#6A7F95" fill="#FFFFFF"></path>
                    <path d="M391.235,192.042 L381.148,190.036 C372.018,224.404 356.296,258.504 326.813,289.295 L336.628,302.239 C363.351,281.789 389.001,265.302 396.947,238.563 C399.614,229.589 392.789,202.19 391.235,192.042 Z" id="Shape" stroke="#6A7F95" fill="#FFFFFF"></path>
                    <path d="M435.852,280.135 C435.852,280.135 394.736,289.654 370.274,288.187 C368.254,288.066 367.537,284.807 368.179,282.456 C378.167,245.848 384.217,214.234 381.245,190.024 C385.414,191.516 395.063,188.928 395.063,188.928 C415.717,211.717 427.318,239.35 435.852,280.135 Z" id="Shape" stroke="#6A7F95" fill="#FFFFFF"></path>
                    <path d="M399.847,186.218 C399.356,185.968 399.097,185.846 399.097,185.846 L399.179,186.3 L391.848,187.2 C391.745,189.405 392.188,197.477 392.835,209.248 C395.184,252.02 400.216,343.627 391.452,379.998 L481.383,368.955 C474.632,329.658 454.209,284.181 434.138,245.901 C446.673,255.613 462.005,272.591 476.349,302.226 L492.665,295.847 C466.443,224.205 411.477,192.345 400.885,186.755 C400.763,186.547 400.641,186.341 400.52,186.135 L399.847,186.218 Z" id="Shape" stroke="#6A7F95" fill="#FFFFFF"></path>
                    <path d="M234.165,188.709 C234.164,188.714 234.164,188.72 234.162,188.726 C234.164,188.721 234.163,188.7 234.165,188.709 Z" id="Shape" fill="#C5CFD6"></path>
                    <path d="M234.162,188.717 C234.163,188.718 234.162,188.721 234.163,188.723 C234.161,188.718 234.166,188.701 234.162,188.717 Z" id="Shape" fill="#C5CFD6"></path>
                    <path d="M234.176,188.627 C234.174,188.648 234.169,188.669 234.167,188.69 C234.168,188.679 234.17,188.671 234.171,188.66 C234.133,188.937 234.157,188.757 234.176,188.627 Z" id="Shape" fill="#C5CFD6"></path>
                    <path d="M234.168,188.691 C234.167,188.701 234.165,188.711 234.164,188.721 C234.149,188.782 234.168,188.691 234.168,188.691 Z" id="Shape" fill="#C5CFD6"></path>
                    <path d="M234.163,188.718 C234.163,188.717 234.163,188.717 234.164,188.715 C234.163,188.717 234.163,188.717 234.163,188.718 Z" id="Shape" fill="#C5CFD6"></path>
                    <path d="M234.16,188.726 C234.157,188.739 234.176,188.674 234.16,188.726 Z" id="Shape" fill="#C5CFD6"></path>
                    <path d="M234.163,188.718 L234.164,188.715 C234.163,188.716 234.164,188.717 234.163,188.718 Z" id="Shape" fill="#C5CFD6"></path>
                </g>
                <g id="Rectangle" transform="translate(297.891016, 212.217622) rotate(-330.000000) translate(-297.891016, -212.217622) translate(257.891016, 187.717622)">
                    <mask id="mask-2" fill="white">
                        <use xlink:href="#path-1"></use>
                    </mask>
                    <rect stroke="#6A7F95" x="0.5" y="0.5" width="79" height="48" rx="4"></rect>
                    <path d="M80.043348,3.77430384 C80.0507448,3.15867441 79.8956181,2.55198626 79.5936234,2.01546647 C78.6454675,0.330985436 76.5112936,-0.265924036 74.8268125,0.682231851 L0.610483359,42.4569078 C-0.498222284,43.0809729 -1.18095869,44.257528 -1.17265398,45.5297766 C-1.16003644,47.462732 0.417162095,49.0194735 2.35011754,49.0068559 L76.0703082,48.5256408 C77.9779689,48.5131883 79.5242902,46.9753283 79.5472095,45.0677646 L80.043348,3.77430384 Z" stroke="#6A7F95" mask="url(#mask-2)"></path>
                </g>
                <path d="M272.3476,195.591473 L307.010333,213.709412 C308.026014,214.2403 309.237261,214.2403 310.252942,213.709412 L344.915675,195.591473 L344.915675,175.504671 C344.915675,173.571675 343.348672,172.004671 341.415675,172.004671 L275.8476,172.004671 C273.914603,172.004671 272.3476,173.571675 272.3476,175.504671 L272.3476,195.591473 Z" id="Rectangle-3" stroke="#6A7F95" fill="#F4F6F8" transform="translate(308.631638, 193.056125) rotate(-330.000000) translate(-308.631638, -193.056125) "></path>
            </g>
        </g>
    </g>
</svg>