
<svg width="105px" height="34px" viewBox="0 0 105 34" version="1.1" xmlns="http://www.w3.org/2000/svg" xmlns:xlink="http://www.w3.org/1999/xlink">
    <!-- Generator: Sketch 50.2 (55047) - http://www.bohemiancoding.com/sketch -->
    <desc>Created with Sketch.</desc>
    <defs>
        <path d="M7.32247283,1.42123388 L26.6775272,1.42123388 C29.9366914,1.42123388 32.5787661,4.06330855 32.5787661,7.32247283 C32.5787661,8.88757871 31.9570302,10.3885819 30.8503333,11.4952789 L11.4952789,30.8503333 C9.19070175,33.1549104 5.45424391,33.1549104 3.14966675,30.8503333 C2.04296977,29.7436363 1.42123388,28.2426331 1.42123388,26.6775272 L1.42123388,7.32247283 C1.42123388,4.06330855 4.06330855,1.42123388 7.32247283,1.42123388 Z M7.32247283,3.14587156 C5.01579964,3.14587156 3.14587156,5.01579964 3.14587156,7.32247283 L3.14587156,26.6775272 C3.14587156,27.7852307 3.58590507,28.8475656 4.36916975,29.6308303 C6.000234,31.2618945 8.64471166,31.2618945 10.2757759,29.6308303 L29.6308303,10.2757759 C30.4140949,9.49251123 30.8541284,8.43017636 30.8541284,7.32247283 C30.8541284,5.01579964 28.9842004,3.14587156 26.6775272,3.14587156 L7.32247283,3.14587156 Z M7.32247283,1.72463768 C4.23087384,1.72463768 1.72463768,4.23087384 1.72463768,7.32247283 L1.72463768,26.6775272 C1.72463768,28.1621654 2.31440791,29.5859966 3.36420564,30.6357944 C5.55029624,32.821885 9.09464941,32.821885 11.28074,30.6357944 L30.6357944,11.28074 C31.6855921,10.2309423 32.2753623,8.80711102 32.2753623,7.32247283 C32.2753623,4.23087384 29.7691262,1.72463768 26.6775272,1.72463768 L7.32247283,1.72463768 Z M7.32247283,0 L26.6775272,2.73533209e-15 C30.7216172,5.58007746e-15 34,3.27838275 34,7.32247283 C34,9.26451337 33.2285274,11.127013 31.8552974,12.500243 L12.500243,31.8552974 C9.64063951,34.7149009 5.00430615,34.7149009 2.14470264,31.8552974 C0.771472601,30.4820673 1.9694391e-15,28.6195677 0,26.6775272 L1.86002582e-15,7.32247283 C1.3129594e-15,3.27838275 3.27838275,1.75061254e-15 7.32247283,0 Z" id="path-1"></path>
    </defs>
    <g id="Page-1" stroke="none" stroke-width="1" fill="none" fill-rule="evenodd">
        <g id="Desktop-HD" transform="translate(-24.000000, -24.000000)">
            <g id="Nav">
                <g id="Wide-Logo" transform="translate(24.000000, 24.000000)">
                    <g id="Logo">
                        <path d="M49.5672088,18.3284317 L53.8568203,24.5005486 L50.3781802,24.5005486 L47.6038046,20.4291171 L46.4300303,21.685197 L46.4300303,24.5005486 L43.5916306,24.5005486 L43.5916306,8.82120616 L46.4300303,8.82120616 L46.4300303,17.8086745 L50.0580599,13.8455258 L53.7714549,13.8455258 L49.5672088,18.3284317 Z M55.7882126,24.5005486 L55.7882126,13.8455258 L58.6266123,13.8455258 L58.6266123,24.5005486 L55.7882126,24.5005486 Z M55.446751,10.3588212 C55.446751,9.8534992 55.6174801,9.42759131 55.9589434,9.08108477 C56.3004067,8.73457823 56.7130021,8.56132756 57.1967418,8.56132756 C57.6947091,8.56132756 58.1108613,8.73457823 58.4452108,9.08108477 C58.7795603,9.42759131 58.9467325,9.8534992 58.9467325,10.3588212 C58.9467325,10.8352677 58.7795603,11.2467381 58.4452108,11.5932446 C58.1108613,11.9397511 57.6947091,12.1130018 57.1967418,12.1130018 C56.7130021,12.1130018 56.3004067,11.9397511 55.9589434,11.5932446 C55.6174801,11.2467381 55.446751,10.8352677 55.446751,10.3588212 Z M68.3262562,16.7041905 C68.0417035,16.6464394 67.757155,16.6175643 67.4726022,16.6175643 C67.1026836,16.6175643 66.7541117,16.6680957 66.426876,16.7691601 C66.0996403,16.8702245 65.8150918,17.0362564 65.573222,17.2672608 C65.3313521,17.4982651 65.135725,17.8050632 64.9863348,18.1876642 C64.8369446,18.5702651 64.7622506,19.0503139 64.7622506,19.6278248 L64.7622506,24.5005486 L61.923851,24.5005486 L61.923851,13.8455258 L64.6768852,13.8455258 L64.6768852,15.426454 C64.8333892,15.0799475 65.0361301,14.7948057 65.2851137,14.5710203 C65.5340974,14.3472348 65.7973048,14.1775935 66.0747437,14.0620913 C66.3521827,13.9465892 66.6296174,13.8671826 66.9070564,13.8238693 C67.1844953,13.780556 67.4370321,13.7588996 67.6646743,13.7588996 C67.7784955,13.7588996 67.888758,13.762509 67.9954653,13.7697279 C68.1021726,13.7769468 68.2124351,13.787775 68.3262562,13.8022127 L68.3262562,16.7041905 Z M75.2088419,22.2049542 C75.5503052,22.2049542 75.8846497,22.1399852 76.2118854,22.0100453 C76.539121,21.8801053 76.8236695,21.6888077 77.0655394,21.4361467 C77.3074092,21.1834857 77.5030363,20.8694689 77.6524265,20.4940868 C77.8018167,20.1187047 77.8765107,19.6783592 77.8765107,19.1730372 C77.8765107,18.6677152 77.8018167,18.2273697 77.6524265,17.8519876 C77.5030363,17.4766056 77.3074092,17.1625887 77.0655394,16.9099277 C76.8236695,16.6572667 76.539121,16.4659691 76.2118854,16.3360291 C75.8846497,16.2060892 75.5503052,16.1411202 75.2088419,16.1411202 C74.8673785,16.1411202 74.5330341,16.2060892 74.2057984,16.3360291 C73.8785627,16.4659691 73.5940142,16.6572667 73.3521443,16.9099277 C73.1102745,17.1625887 72.9146474,17.4766056 72.7652572,17.8519876 C72.615867,18.2273697 72.541173,18.6677152 72.541173,19.1730372 C72.541173,19.6783592 72.615867,20.1187047 72.7652572,20.4940868 C72.9146474,20.8694689 73.1102745,21.1834857 73.3521443,21.4361467 C73.5940142,21.6888077 73.8785627,21.8801053 74.2057984,22.0100453 C74.5330341,22.1399852 74.8673785,22.2049542 75.2088419,22.2049542 Z M75.2088419,13.5206776 C75.991362,13.5206776 76.7205175,13.6614437 77.3963303,13.9429803 C78.0721432,14.2245169 78.6554676,14.6143309 79.1463211,15.112434 C79.6371746,15.6105372 80.0213151,16.2060863 80.298754,16.8990994 C80.576193,17.5921125 80.7149104,18.3500842 80.7149104,19.1730372 C80.7149104,19.9959902 80.576193,20.7503525 80.298754,21.4361467 C80.0213151,22.1219409 79.6371746,22.7174901 79.1463211,23.2228121 C78.6554676,23.7281341 78.0721432,24.1215575 77.3963303,24.4030941 C76.7205175,24.6846307 75.991362,24.8253968 75.2088419,24.8253968 C74.4263218,24.8253968 73.6971662,24.6846307 73.0213534,24.4030941 C72.3455406,24.1215575 71.7622162,23.7281341 71.2713626,23.2228121 C70.7805091,22.7174901 70.3963686,22.1219409 70.1189297,21.4361467 C69.8414907,20.7503525 69.7027734,19.9959902 69.7027734,19.1730372 C69.7027734,18.3500842 69.8414907,17.5921125 70.1189297,16.8990994 C70.3963686,16.2060863 70.7805091,15.6105372 71.2713626,15.112434 C71.7622162,14.6143309 72.3455406,14.2245169 73.0213534,13.9429803 C73.6971662,13.6614437 74.4263218,13.5206776 75.2088419,13.5206776 Z M89.1980973,18.3284317 L93.4877089,24.5005486 L90.0090687,24.5005486 L87.2346931,20.4291171 L86.0609188,21.685197 L86.0609188,24.5005486 L83.2225191,24.5005486 L83.2225191,8.82120616 L86.0609188,8.82120616 L86.0609188,17.8086745 L89.6889484,13.8455258 L93.4023435,13.8455258 L89.1980973,18.3284317 Z M102.184309,24.5005486 C102.155854,24.3850464 102.134513,24.2190145 102.120285,24.0024479 C102.106058,23.7858813 102.098944,23.569318 102.098944,23.3527514 C101.814391,23.8580734 101.398239,24.2226217 100.850475,24.4464072 C100.302711,24.6701927 99.7513981,24.7820837 99.1965202,24.7820837 C98.5562765,24.7820837 97.9907364,24.6701927 97.4998828,24.4464072 C97.0090293,24.2226217 96.5928771,23.9230424 96.2514138,23.5476604 C95.9099505,23.1722783 95.6503,22.7283234 95.4724545,22.2157825 C95.294609,21.7032416 95.2056876,21.1582239 95.2056876,20.580713 L95.2056876,13.8455258 L98.0440873,13.8455258 L98.0440873,19.9959861 C98.0440873,20.6023726 98.1970321,21.1112964 98.5029263,21.5227729 C98.8088205,21.9342494 99.2961098,22.1399846 99.9648088,22.1399846 C100.605053,22.1399846 101.095899,21.9450776 101.437362,21.5552577 C101.778825,21.1654379 101.949554,20.6601234 101.949554,20.0392992 L101.949554,13.8455258 L104.787954,13.8455258 L104.787954,22.5731156 C104.787954,22.991811 104.798625,23.3707968 104.819966,23.7100845 C104.841308,24.0493721 104.866206,24.3128575 104.894661,24.5005486 L102.184309,24.5005486 Z" id="kiroku" fill="#007A87"></path>
                        <g id="Group-3">
                            <g transform="translate(17.000000, 17.000000) rotate(-270.000000) translate(-17.000000, -17.000000) ">
                                <g id="Rectangle-3">
                                    <mask id="mask-2" fill="white">
                                        <use xlink:href="#path-1"></use>
                                    </mask>
                                    <use id="Mask" fill="#007A87" fill-rule="nonzero" xlink:href="#path-1"></use>
                                </g>
                                <path d="M7.32247283,1.42123388 L26.6775272,1.42123388 C29.9366914,1.42123388 32.5787661,4.06330855 32.5787661,7.32247283 C32.5787661,8.88757871 31.9570302,10.3885819 30.8503333,11.4952789 L11.4952789,30.8503333 C9.19070175,33.1549104 5.45424391,33.1549104 3.14966675,30.8503333 C2.04296977,29.7436363 1.42123388,28.2426331 1.42123388,26.6775272 L1.42123388,7.32247283 C1.42123388,4.06330855 4.06330855,1.42123388 7.32247283,1.42123388 Z M7.32247283,3.14587156 C5.01579964,3.14587156 3.14587156,5.01579964 3.14587156,7.32247283 L3.14587156,26.6775272 C3.14587156,27.7852307 3.58590507,28.8475656 4.36916975,29.6308303 C6.000234,31.2618945 8.64471166,31.2618945 10.2757759,29.6308303 L29.6308303,10.2757759 C30.4140949,9.49251123 30.8541284,8.43017636 30.8541284,7.32247283 C30.8541284,5.01579964 28.9842004,3.14587156 26.6775272,3.14587156 L7.32247283,3.14587156 Z M7.32247283,1.84782609 C4.23087384,1.84782609 1.72463768,4.35406225 1.72463768,7.44566123 L1.72463768,26.8007156 C1.72463768,28.2853538 2.31440791,29.709185 3.36420564,30.7589828 C5.55029624,32.9450734 9.09464941,32.9450734 11.28074,30.7589828 L30.6357944,11.4039284 C31.6855921,10.3541307 32.2753623,8.93029942 32.2753623,7.44566123 C32.2753623,4.35406225 29.7691262,1.84782609 26.6775272,1.84782609 L7.32247283,1.84782609 Z M7.32247283,0 C11.603529,1.79085681 14.8293714,2.68628522 17,2.68628522 C19.1304946,2.68628522 22.3563369,1.79085681 26.6775272,2.73533209e-15 C30.7216172,5.58007746e-15 34,3.27838275 34,7.32247283 C34,9.26451337 33.2285274,11.127013 31.8552974,12.500243 L12.500243,31.8552974 C9.64063951,34.7149009 5.00430615,34.7149009 2.14470264,31.8552974 C0.771472601,30.4820673 1.9694391e-15,28.6195677 0,26.6775272 L1.86002582e-15,7.32247283 C1.3129594e-15,3.27838275 3.27838275,1.75061254e-15 7.32247283,0 Z" id="Rectangle-2" fill="#007A87" fill-rule="nonzero" transform="translate(17.000000, 17.000000) rotate(-90.000000) translate(-17.000000, -17.000000) "></path>
                            </g>
                        </g>
                    </g>
                </g>
            </g>
        </g>
    </g>
</svg>
