<?xml version="1.0" encoding="UTF-8"?>
<svg width="730px" height="227px" viewBox="0 0 730 227" version="1.1" xmlns="http://www.w3.org/2000/svg" xmlns:xlink="http://www.w3.org/1999/xlink">
    <!-- Generator: Sketch 50.2 (55047) - http://www.bohemiancoding.com/sketch -->
    <title>Group</title>
    <desc>Created with Sketch.</desc>
    <defs>
        <path d="M48.8882745,9.48882618 L178.111726,9.48882618 C199.87144,9.48882618 217.511174,27.12856 217.511174,48.8882745 C217.511174,59.3376578 213.360172,69.3590617 205.971343,76.7478915 L76.7478915,205.971343 C61.3614499,221.357784 36.415099,221.357784 21.0286574,205.971343 C13.6398276,198.582513 9.48882618,188.561109 9.48882618,178.111726 L9.48882618,48.8882745 C9.48882618,27.12856 27.12856,9.48882618 48.8882745,9.48882618 Z M48.8882745,21.0033189 C33.4878388,21.0033189 21.0033189,33.4878388 21.0033189,48.8882745 L21.0033189,178.111726 C21.0033189,185.507276 23.9411897,192.599923 29.1706333,197.829367 C40.0603858,208.719119 57.7161631,208.719119 68.6059156,197.829367 L197.829367,68.6059156 C203.05881,63.376472 205.996681,56.2838245 205.996681,48.8882745 C205.996681,33.4878388 193.512161,21.0033189 178.111726,21.0033189 L48.8882745,21.0033189 Z M48.8882745,11.5144928 C28.2473048,11.5144928 11.5144928,28.2473048 11.5144928,48.8882745 L11.5144928,178.111726 C11.5144928,188.023869 15.4520763,197.530036 22.46102,204.53898 C37.0563896,219.13435 60.7201593,219.13435 75.315529,204.53898 L204.53898,75.315529 C211.547924,68.3065853 215.485507,58.8004177 215.485507,48.8882745 C215.485507,28.2473048 198.752695,11.5144928 178.111726,11.5144928 L48.8882745,11.5144928 Z M48.8882745,0 L178.111726,1.82623642e-14 C205.111974,3.72552231e-14 227,21.888026 227,48.8882745 C227,61.854251 221.849286,74.2891749 212.680956,83.4575049 L83.4575049,212.680956 C64.3654461,231.773015 33.4111028,231.773015 14.3190441,212.680956 C5.15071413,203.512626 1.31489023e-14,191.077702 0,178.111726 L1.24184077e-14,48.8882745 C8.76593484e-15,21.888026 21.888026,1.16879131e-14 48.8882745,0 Z" id="path-1"></path>
    </defs>
    <g id="Page-1" stroke="none" stroke-width="1" fill="none" fill-rule="evenodd">
        <g id="Artboard" transform="translate(-108.000000, -120.000000)">
            <g id="Group" transform="translate(108.000000, 120.000000)">
                <path d="M338.304613,112.860186 L368.673281,155.743009 L344.045953,155.743009 L324.404526,127.455393 L316.094691,136.182423 L316.094691,155.743009 L296,155.743009 L296,46.8055925 L316.094691,46.8055925 L316.094691,109.249001 L341.779634,81.713715 L368.06893,81.713715 L338.304613,112.860186 Z M382.346736,155.743009 L382.346736,81.713715 L402.441427,81.713715 L402.441427,155.743009 L382.346736,155.743009 Z M379.92933,57.4886818 C379.92933,53.9777898 381.138021,51.0186538 383.55544,48.6111851 C385.972858,46.2037163 388.893862,45 392.318538,45 C395.84394,45 398.790125,46.2037163 401.15718,48.6111851 C403.524236,51.0186538 404.707746,53.9777898 404.707746,57.4886818 C404.707746,60.7989513 403.524236,63.6577776 401.15718,66.0652463 C398.790125,68.4727151 395.84394,69.6764314 392.318538,69.6764314 C388.893862,69.6764314 385.972858,68.4727151 383.55544,66.0652463 C381.138021,63.6577776 379.92933,60.7989513 379.92933,57.4886818 Z M471.110879,101.575233 C469.096364,101.173988 467.081878,100.973369 465.067363,100.973369 C462.448493,100.973369 459.980748,101.324453 457.664056,102.026631 C455.347363,102.72881 453.332878,103.882371 451.62054,105.48735 C449.908201,107.092329 448.523243,109.22391 447.465622,111.882157 C446.408002,114.540404 445.879199,117.875701 445.879199,121.888149 L445.879199,155.743009 L425.784508,155.743009 L425.784508,81.713715 L445.274848,81.713715 L445.274848,92.6977364 C446.382831,90.2902676 447.818152,88.3091511 449.580853,86.7543276 C451.343554,85.199504 453.206953,84.0208651 455.171105,83.2183755 C457.135258,82.4158859 459.099381,81.8641826 461.063534,81.563249 C463.027686,81.2623154 464.815542,81.1118509 466.427154,81.1118509 C467.23296,81.1118509 468.013573,81.1369283 468.769017,81.1870839 C469.52446,81.2372395 470.305073,81.3124718 471.110879,81.412783 L471.110879,101.575233 Z M519.836728,139.793609 C522.254146,139.793609 524.621166,139.342215 526.937859,138.439414 C529.254552,137.536613 531.269037,136.20751 532.981375,134.452064 C534.693713,132.696618 536.078672,130.514882 537.136292,127.906791 C538.193913,125.2987 538.722715,122.239254 538.722715,118.728362 C538.722715,115.21747 538.193913,112.158025 537.136292,109.549933 C536.078672,106.941842 534.693713,104.760106 532.981375,103.00466 C531.269037,101.249214 529.254552,99.920111 526.937859,99.0173103 C524.621166,98.1145095 522.254146,97.6631158 519.836728,97.6631158 C517.419309,97.6631158 515.052289,98.1145095 512.735596,99.0173103 C510.418903,99.920111 508.404418,101.249214 506.69208,103.00466 C504.979742,104.760106 503.594783,106.941842 502.537163,109.549933 C501.479542,112.158025 500.95074,115.21747 500.95074,118.728362 C500.95074,122.239254 501.479542,125.2987 502.537163,127.906791 C503.594783,130.514882 504.979742,132.696618 506.69208,134.452064 C508.404418,136.20751 510.418903,137.536613 512.735596,138.439414 C515.052289,139.342215 517.419309,139.793609 519.836728,139.793609 Z M519.836728,79.4567244 C525.376645,79.4567244 530.538763,80.4347439 535.323238,82.3908123 C540.107712,84.3468806 544.237406,87.0552424 547.712446,90.5159787 C551.187485,93.976715 553.90704,98.1144899 555.871192,102.929427 C557.835345,107.744365 558.817406,113.010624 558.817406,118.728362 C558.817406,124.4461 557.835345,129.687282 555.871192,134.452064 C553.90704,139.216846 551.187485,143.354621 547.712446,146.865513 C544.237406,150.376405 540.107712,153.109844 535.323238,155.065912 C530.538763,157.02198 525.376645,158 519.836728,158 C514.29681,158 509.134692,157.02198 504.350218,155.065912 C499.565743,153.109844 495.436049,150.376405 491.96101,146.865513 C488.48597,143.354621 485.766415,139.216846 483.802263,134.452064 C481.83811,129.687282 480.856049,124.4461 480.856049,118.728362 C480.856049,113.010624 481.83811,107.744365 483.802263,102.929427 C485.766415,98.1144899 488.48597,93.976715 491.96101,90.5159787 C495.436049,87.0552424 499.565743,84.3468806 504.350218,82.3908123 C509.134692,80.4347439 514.29681,79.4567244 519.836728,79.4567244 Z M618.874848,112.860186 L649.243516,155.743009 L624.616188,155.743009 L604.974761,127.455393 L596.664926,136.182423 L596.664926,155.743009 L576.570235,155.743009 L576.570235,46.8055925 L596.664926,46.8055925 L596.664926,109.249001 L622.349869,81.713715 L648.639164,81.713715 L618.874848,112.860186 Z M710.811836,155.743009 C710.610385,154.94052 710.459298,153.786958 710.358573,152.28229 C710.257847,150.777622 710.207485,149.272977 710.207485,147.768309 C708.192969,151.279201 705.246785,153.812021 701.368842,155.366844 C697.4909,156.921668 693.587835,157.699068 689.65953,157.699068 C685.12687,157.699068 681.123081,156.921668 677.648042,155.366844 C674.173003,153.812021 671.226818,151.730594 668.809399,149.122503 C666.391981,146.514412 664.553763,143.429889 663.294691,139.868842 C662.035619,136.307794 661.406092,132.521103 661.406092,128.508655 L661.406092,81.713715 L681.500783,81.713715 L681.500783,124.446072 C681.500783,128.659142 682.583569,132.195059 684.749173,135.053928 C686.914777,137.912797 690.364583,139.34221 695.098695,139.34221 C699.631354,139.34221 703.106341,137.98803 705.52376,135.279627 C707.941178,132.571225 709.149869,129.060386 709.149869,124.747004 L709.149869,81.713715 L729.24456,81.713715 L729.24456,142.351531 C729.24456,145.260556 729.320104,147.893686 729.471192,150.250999 C729.622281,152.608312 729.798548,154.438964 730,155.743009 L710.811836,155.743009 Z" id="kiroku" fill="#6A7F95"></path>
                <g id="Group-3" transform="translate(113.500000, 113.500000) rotate(-270.000000) translate(-113.500000, -113.500000) ">
                    <g id="Rectangle-3">
                        <mask id="mask-2" fill="white">
                            <use xlink:href="#path-1"></use>
                        </mask>
                        <use id="Mask" fill="#6A7F95" fill-rule="nonzero" xlink:href="#path-1"></use>
                    </g>
                    <path d="M48.8882745,9.48882618 L178.111726,9.48882618 C199.87144,9.48882618 217.511174,27.12856 217.511174,48.8882745 C217.511174,59.3376578 213.360172,69.3590617 205.971343,76.7478915 L76.7478915,205.971343 C61.3614499,221.357784 36.415099,221.357784 21.0286574,205.971343 C13.6398276,198.582513 9.48882618,188.561109 9.48882618,178.111726 L9.48882618,48.8882745 C9.48882618,27.12856 27.12856,9.48882618 48.8882745,9.48882618 Z M48.8882745,21.0033189 C33.4878388,21.0033189 21.0033189,33.4878388 21.0033189,48.8882745 L21.0033189,178.111726 C21.0033189,185.507276 23.9411897,192.599923 29.1706333,197.829367 C40.0603858,208.719119 57.7161631,208.719119 68.6059156,197.829367 L197.829367,68.6059156 C203.05881,63.376472 205.996681,56.2838245 205.996681,48.8882745 C205.996681,33.4878388 193.512161,21.0033189 178.111726,21.0033189 L48.8882745,21.0033189 Z M48.8882745,12.3369565 C28.2473048,12.3369565 11.5144928,29.0697686 11.5144928,49.7107382 L11.5144928,178.934189 C11.5144928,188.846332 15.4520763,198.3525 22.46102,205.361444 C37.0563896,219.956813 60.7201593,219.956813 75.315529,205.361444 L204.53898,76.1379927 C211.547924,69.1290491 215.485507,59.6228814 215.485507,49.7107382 C215.485507,29.0697686 198.752695,12.3369565 178.111726,12.3369565 L48.8882745,12.3369565 Z M48.8882745,0 C77.4706199,11.9566028 99.0078617,17.9349042 113.5,17.9349042 C127.724184,17.9349042 149.261426,11.9566028 178.111726,1.82623642e-14 C205.111974,3.72552231e-14 227,21.888026 227,48.8882745 C227,61.854251 221.849286,74.2891749 212.680956,83.4575049 L83.4575049,212.680956 C64.3654461,231.773015 33.4111028,231.773015 14.3190441,212.680956 C5.15071413,203.512626 1.31489023e-14,191.077702 0,178.111726 L1.24184077e-14,48.8882745 C8.76593484e-15,21.888026 21.888026,1.16879131e-14 48.8882745,0 Z" id="Rectangle-2" fill="#6A7F95" fill-rule="nonzero" transform="translate(113.500000, 113.500000) rotate(-90.000000) translate(-113.500000, -113.500000) "></path>
                </g>
            </g>
        </g>
    </g>
</svg>