<?xml version="1.0" encoding="UTF-8"?>
<svg width="434px" height="578px" viewBox="0 0 434 578" version="1.1" xmlns="http://www.w3.org/2000/svg" xmlns:xlink="http://www.w3.org/1999/xlink">
    <!-- Generator: Sketch 50.2 (55047) - http://www.bohemiancoding.com/sketch -->
    <title>Group</title>
    <desc>Created with Sketch.</desc>
    <defs>
        <path d="M93.469212,18.1416324 L340.530788,18.1416324 C382.133061,18.1416324 415.858368,51.8669386 415.858368,93.469212 C415.858368,113.447328 407.922092,132.607193 393.79543,146.733854 L146.733854,393.79543 C117.316605,423.21268 69.6218193,423.21268 40.2045697,393.79543 C26.0779082,379.668769 18.1416324,360.508904 18.1416324,340.530788 L18.1416324,93.469212 C18.1416324,51.8669386 51.8669386,18.1416324 93.469212,18.1416324 Z M93.469212,40.1561252 C64.0252072,40.1561252 40.1561252,64.0252072 40.1561252,93.469212 L40.1561252,340.530788 C40.1561252,354.670298 45.7730236,368.23069 55.7711668,378.228833 C76.5912222,399.048889 110.347202,399.048889 131.167257,378.228833 L378.228833,131.167257 C388.226976,121.169114 393.843875,107.608722 393.843875,93.469212 C393.843875,64.0252072 369.974793,40.1561252 340.530788,40.1561252 L93.469212,40.1561252 Z M93.469212,22.0144928 C54.0058602,22.0144928 22.0144928,54.0058602 22.0144928,93.469212 L22.0144928,340.530788 C22.0144928,359.481758 29.5427362,377.656545 42.9430955,391.056905 C70.8478991,418.961708 116.090525,418.961708 143.995329,391.056905 L391.056905,143.995329 C404.457264,130.594969 411.985507,112.420182 411.985507,93.469212 C411.985507,54.0058602 379.99414,22.0144928 340.530788,22.0144928 L93.469212,22.0144928 Z M93.469212,0 L340.530788,3.49157096e-14 C392.152408,7.12280476e-14 434,41.8475916 434,93.469212 C434,118.258788 424.152379,142.033048 406.623502,159.561926 L159.561926,406.623502 C123.059928,443.125499 63.8784962,443.125499 27.3764984,406.623502 C9.84762085,389.094624 2.51393109e-14,365.320364 0,340.530788 L2.37426825e-14,93.469212 C1.67595406e-14,41.8475916 41.8475916,2.23460542e-14 93.469212,0 Z" id="path-1"></path>
    </defs>
    <g id="Page-1" stroke="none" stroke-width="1" fill="none" fill-rule="evenodd">
        <g id="Artboard" transform="translate(-404.000000, -141.000000)">
            <g id="Group" transform="translate(404.000000, 141.000000)">
                <path d="M42.3046127,532.860186 L72.6732811,575.743009 L48.045953,575.743009 L28.4045257,547.455393 L20.094691,556.182423 L20.094691,575.743009 L0,575.743009 L0,466.805593 L20.094691,466.805593 L20.094691,529.249001 L45.7796345,501.713715 L72.0689295,501.713715 L42.3046127,532.860186 Z M86.3467363,575.743009 L86.3467363,501.713715 L106.441427,501.713715 L106.441427,575.743009 L86.3467363,575.743009 Z M83.9293299,477.488682 C83.9293299,473.97779 85.138021,471.018654 87.5554395,468.611185 C89.972858,466.203716 92.8938616,465 96.3185379,465 C99.8439399,465 102.790125,466.203716 105.15718,468.611185 C107.524236,471.018654 108.707746,473.97779 108.707746,477.488682 C108.707746,480.798951 107.524236,483.657778 105.15718,486.065246 C102.790125,488.472715 99.8439399,489.676431 96.3185379,489.676431 C92.8938616,489.676431 89.972858,488.472715 87.5554395,486.065246 C85.138021,483.657778 83.9293299,480.798951 83.9293299,477.488682 Z M175.110879,521.575233 C173.096364,521.173988 171.081878,520.973369 169.067363,520.973369 C166.448493,520.973369 163.980748,521.324453 161.664056,522.026631 C159.347363,522.72881 157.332878,523.882371 155.62054,525.48735 C153.908201,527.092329 152.523243,529.22391 151.465622,531.882157 C150.408002,534.540404 149.879199,537.875701 149.879199,541.888149 L149.879199,575.743009 L129.784508,575.743009 L129.784508,501.713715 L149.274848,501.713715 L149.274848,512.697736 C150.382831,510.290268 151.818152,508.309151 153.580853,506.754328 C155.343554,505.199504 157.206953,504.020865 159.171105,503.218375 C161.135258,502.415886 163.099381,501.864183 165.063534,501.563249 C167.027686,501.262315 168.815542,501.111851 170.427154,501.111851 C171.23296,501.111851 172.013573,501.136928 172.769017,501.187084 C173.52446,501.237239 174.305073,501.312472 175.110879,501.412783 L175.110879,521.575233 Z M223.836728,559.793609 C226.254146,559.793609 228.621166,559.342215 230.937859,558.439414 C233.254552,557.536613 235.269037,556.20751 236.981375,554.452064 C238.693713,552.696618 240.078672,550.514882 241.136292,547.906791 C242.193913,545.2987 242.722715,542.239254 242.722715,538.728362 C242.722715,535.21747 242.193913,532.158025 241.136292,529.549933 C240.078672,526.941842 238.693713,524.760106 236.981375,523.00466 C235.269037,521.249214 233.254552,519.920111 230.937859,519.01731 C228.621166,518.114509 226.254146,517.663116 223.836728,517.663116 C221.419309,517.663116 219.052289,518.114509 216.735596,519.01731 C214.418903,519.920111 212.404418,521.249214 210.69208,523.00466 C208.979742,524.760106 207.594783,526.941842 206.537163,529.549933 C205.479542,532.158025 204.95074,535.21747 204.95074,538.728362 C204.95074,542.239254 205.479542,545.2987 206.537163,547.906791 C207.594783,550.514882 208.979742,552.696618 210.69208,554.452064 C212.404418,556.20751 214.418903,557.536613 216.735596,558.439414 C219.052289,559.342215 221.419309,559.793609 223.836728,559.793609 Z M223.836728,499.456724 C229.376645,499.456724 234.538763,500.434744 239.323238,502.390812 C244.107712,504.346881 248.237406,507.055242 251.712446,510.515979 C255.187485,513.976715 257.90704,518.11449 259.871192,522.929427 C261.835345,527.744365 262.817406,533.010624 262.817406,538.728362 C262.817406,544.4461 261.835345,549.687282 259.871192,554.452064 C257.90704,559.216846 255.187485,563.354621 251.712446,566.865513 C248.237406,570.376405 244.107712,573.109844 239.323238,575.065912 C234.538763,577.02198 229.376645,578 223.836728,578 C218.29681,578 213.134692,577.02198 208.350218,575.065912 C203.565743,573.109844 199.436049,570.376405 195.96101,566.865513 C192.48597,563.354621 189.766415,559.216846 187.802263,554.452064 C185.83811,549.687282 184.856049,544.4461 184.856049,538.728362 C184.856049,533.010624 185.83811,527.744365 187.802263,522.929427 C189.766415,518.11449 192.48597,513.976715 195.96101,510.515979 C199.436049,507.055242 203.565743,504.346881 208.350218,502.390812 C213.134692,500.434744 218.29681,499.456724 223.836728,499.456724 Z M322.874848,532.860186 L353.243516,575.743009 L328.616188,575.743009 L308.974761,547.455393 L300.664926,556.182423 L300.664926,575.743009 L280.570235,575.743009 L280.570235,466.805593 L300.664926,466.805593 L300.664926,529.249001 L326.349869,501.713715 L352.639164,501.713715 L322.874848,532.860186 Z M414.811836,575.743009 C414.610385,574.94052 414.459298,573.786958 414.358573,572.28229 C414.257847,570.777622 414.207485,569.272977 414.207485,567.768309 C412.192969,571.279201 409.246785,573.812021 405.368842,575.366844 C401.4909,576.921668 397.587835,577.699068 393.65953,577.699068 C389.12687,577.699068 385.123081,576.921668 381.648042,575.366844 C378.173003,573.812021 375.226818,571.730594 372.809399,569.122503 C370.391981,566.514412 368.553763,563.429889 367.294691,559.868842 C366.035619,556.307794 365.406092,552.521103 365.406092,548.508655 L365.406092,501.713715 L385.500783,501.713715 L385.500783,544.446072 C385.500783,548.659142 386.583569,552.195059 388.749173,555.053928 C390.914777,557.912797 394.364583,559.34221 399.098695,559.34221 C403.631354,559.34221 407.106341,557.98803 409.52376,555.279627 C411.941178,552.571225 413.149869,549.060386 413.149869,544.747004 L413.149869,501.713715 L433.24456,501.713715 L433.24456,562.351531 C433.24456,565.260556 433.320104,567.893686 433.471192,570.250999 C433.622281,572.608312 433.798548,574.438964 434,575.743009 L414.811836,575.743009 Z" id="kiroku" fill="#6A7F95"></path>
                <g id="Group-3" transform="translate(217.000000, 217.000000) rotate(-270.000000) translate(-217.000000, -217.000000) translate(0.000000, 0.000000)">
                    <g id="Rectangle-3">
                        <mask id="mask-2" fill="white">
                            <use xlink:href="#path-1"></use>
                        </mask>
                        <use id="Mask" fill="#6A7F95" fill-rule="nonzero" xlink:href="#path-1"></use>
                    </g>
                    <path d="M93.469212,18.1416324 L340.530788,18.1416324 C382.133061,18.1416324 415.858368,51.8669386 415.858368,93.469212 C415.858368,113.447328 407.922092,132.607193 393.79543,146.733854 L146.733854,393.79543 C117.316605,423.21268 69.6218193,423.21268 40.2045697,393.79543 C26.0779082,379.668769 18.1416324,360.508904 18.1416324,340.530788 L18.1416324,93.469212 C18.1416324,51.8669386 51.8669386,18.1416324 93.469212,18.1416324 Z M93.469212,40.1561252 C64.0252072,40.1561252 40.1561252,64.0252072 40.1561252,93.469212 L40.1561252,340.530788 C40.1561252,354.670298 45.7730236,368.23069 55.7711668,378.228833 C76.5912222,399.048889 110.347202,399.048889 131.167257,378.228833 L378.228833,131.167257 C388.226976,121.169114 393.843875,107.608722 393.843875,93.469212 C393.843875,64.0252072 369.974793,40.1561252 340.530788,40.1561252 L93.469212,40.1561252 Z M93.469212,23.5869565 C54.0058602,23.5869565 22.0144928,55.578324 22.0144928,95.0416758 L22.0144928,342.103252 C22.0144928,361.054222 29.5427362,379.229009 42.9430955,392.629368 C70.8478991,420.534172 116.090525,420.534172 143.995329,392.629368 L391.056905,145.567792 C404.457264,132.167433 411.985507,113.992646 411.985507,95.0416758 C411.985507,55.578324 379.99414,23.5869565 340.530788,23.5869565 L93.469212,23.5869565 Z M93.469212,0 C148.115635,22.8597605 189.292564,34.2896407 217,34.2896407 C244.195136,34.2896407 285.372066,22.8597605 340.530788,3.49157096e-14 C392.152408,7.12280476e-14 434,41.8475916 434,93.469212 C434,118.258788 424.152379,142.033048 406.623502,159.561926 L159.561926,406.623502 C123.059928,443.125499 63.8784962,443.125499 27.3764984,406.623502 C9.84762085,389.094624 2.51393109e-14,365.320364 0,340.530788 L2.37426825e-14,93.469212 C1.67595406e-14,41.8475916 41.8475916,2.23460542e-14 93.469212,0 Z" id="Rectangle-2" fill="#6A7F95" fill-rule="nonzero" transform="translate(217.000000, 217.000000) rotate(-90.000000) translate(-217.000000, -217.000000) "></path>
                </g>
            </g>
        </g>
    </g>
</svg>